<?xml version="1.0" encoding="UTF-8"?>
<!DOCTYPE svg PUBLIC "-//W3C//DTD SVG 1.1//EN" "http://www.w3.org/Graphics/SVG/1.1/DTD/svg11.dtd">
<svg version="1.1" xmlns="http://www.w3.org/2000/svg" xmlns:xlink="http://www.w3.org/1999/xlink" x="0" y="0" width="842" height="595" viewBox="0, 0, 842, 595">
  <g id="Background">
    <rect x="0" y="0" width="842" height="595" fill="#FFFFFF"/>
  </g>
  <g id="Background">
    <path d="M0,0 L842,0 L842,595 L0,595 z" fill="#FFFFFF"/>
  </g>
  <g id="Layer_1">
    <path d="M15.289,235.678 L169.945,235.678 C178.223,235.678 184.994,242.449 184.994,250.727 L184.994,405.383 C184.994,413.66 178.223,420.432 169.945,420.432 L15.289,420.432 C7.012,420.432 0.24,413.66 0.24,405.383 L0.24,250.727 C0.24,242.449 7.012,235.678 15.289,235.678" fill="#1C3761"/>
    <path d="M142.428,182.965 L175.364,182.965 C178.076,182.965 180.295,185.184 180.295,187.896 L180.295,220.832 C180.295,223.544 178.076,225.763 175.364,225.763 L142.428,225.763 C139.716,225.763 137.497,223.544 137.497,220.832 L137.497,187.896 C137.497,185.184 139.716,182.965 142.428,182.965" fill="#1C3761"/>
    <path d="M202.943,211.663 L228.726,211.663 C230.85,211.663 232.586,213.401 232.586,215.524 L232.586,241.307 C232.586,243.431 230.85,245.167 228.726,245.167 L202.943,245.167 C200.82,245.167 199.084,243.431 199.084,241.307 L199.084,215.524 C199.084,213.401 200.82,211.663 202.943,211.663" fill="#1C3761"/>
    <path d="M195.286,174.61 L211.753,174.61 C213.109,174.61 214.219,175.718 214.219,177.076 L214.219,193.543 C214.219,194.899 213.109,196.008 211.753,196.008 L195.286,196.008 C193.93,196.008 192.821,194.899 192.821,193.543 L192.821,177.076 C192.821,175.718 193.93,174.61 195.286,174.61" fill="#1C3761"/>
    <path d="M19.262,347.885 L52.198,347.885 C54.909,347.885 57.128,350.102 57.128,352.816 L57.128,385.751 C57.128,388.463 54.909,390.682 52.198,390.682 L19.262,390.682 C16.549,390.682 14.331,388.463 14.331,385.751 L14.331,352.816 C14.331,350.102 16.549,347.885 19.262,347.885" fill="#FFFFFE"/>
    <path d="M79.777,376.582 L105.561,376.582 C107.684,376.582 109.42,378.319 109.42,380.442 L109.42,406.225 C109.42,408.349 107.684,410.086 105.561,410.086 L79.777,410.086 C77.653,410.086 75.916,408.349 75.916,406.225 L75.916,380.442 C75.916,378.319 77.653,376.582 79.777,376.582" fill="#FFFFFE"/>
    <path d="M72.12,339.528 L88.587,339.528 C89.943,339.528 91.052,340.637 91.052,341.994 L91.052,358.462 C91.052,359.818 89.943,360.926 88.587,360.926 L72.12,360.926 C70.763,360.926 69.653,359.818 69.653,358.462 L69.653,341.994 C69.653,340.637 70.763,339.528 72.12,339.528" fill="#FFFFFE"/>
    <path d="M205.76,372.999 L841.8,372.999" fill-opacity="0" stroke="#1C3761" stroke-width="1.974"/>
    <text transform="matrix(1, 0, 0, 1, 515.559, 310.465)">
      <tspan x="-222.82" y="45.5" font-family="ArchitectsDaughter" font-size="144" fill="#1C3761">alp42</tspan>
    </text>
  </g>
</svg>
